<?xml version="1.0" encoding="utf-8"?>
<!-- Generator: Adobe Illustrator 23.0.1, SVG Export Plug-In . SVG Version: 6.00 Build 0)  -->
<svg version="1.1" id="Camada_1" xmlns="http://www.w3.org/2000/svg" xmlns:xlink="http://www.w3.org/1999/xlink" x="0px" y="0px"
	 viewBox="0 0 122.3 49.9" style="enable-background:new 0 0 122.3 49.9;" xml:space="preserve">
<style type="text/css">
	.st0{fill:#E21853;}
</style>
<g>
	<polygon class="st0" points="20.4,17.5 15.8,21.6 10.3,18.8 10.3,28.7 12.4,27 12.4,22.3 12.4,22.3 16.1,24.1 20.5,20.2 24.7,23.9 
		28.4,22.2 28.4,28.7 20.1,28.7 26.9,34.4 25,30.8 30.5,30.8 30.5,18.7 25,21.5 	"/>
	<path class="st0" d="M20.4,7.3C10.1,7.3,1.8,15.7,1.8,26s8.3,18.6,18.6,18.6S39.1,36.3,39.1,26S30.7,7.3,20.4,7.3z M20.4,41.7
		c-8.7,0-15.7-7-15.7-15.7s7-15.7,15.7-15.7s15.7,7,15.7,15.7C36.2,34.7,29.1,41.7,20.4,41.7z"/>
</g>
<g>
	<path d="M50.5,27.3V15.6h-4.3v-2.5h11.6v2.5h-4.3v11.7H50.5z"/>
	<path d="M57.8,27.3V16.8h2.6V18c0.9-1.4,2-1.5,3.1-1.5H64v2.9c-0.3,0-0.5-0.1-0.8-0.1c-1.7,0-2.6,0.9-2.6,2.6v5.5h-2.8V27.3z"/>
	<path d="M65.2,15.5v-2.6H68v2.6H65.2z M65.2,27.3V16.8H68v10.5H65.2z"/>
	<path d="M76.5,27.3v-1.5c-0.7,1.2-1.8,1.8-3.3,1.8c-2.1,0-3.6-1.6-3.6-3.9v-6.9h2.8v6.5c0,1.3,0.6,2,1.8,2c1.4,0,2.2-1,2.2-2.4
		v-6.1h2.8v10.5H76.5L76.5,27.3z"/>
	<path d="M87.5,27.3v-6.4c0-1.6-0.5-2.1-1.8-2.1c-1.5,0-2.2,0.8-2.2,2.4v6h-2.8V16.7h2.7v1.5c0.6-1.2,1.7-1.8,3.4-1.8
		c2,0,3.5,1.2,3.5,3.5v7.3L87.5,27.3L87.5,27.3z"/>
	<path d="M92.5,27.3v-8.6h-1.6v-2h1.6c0-2.6,1.5-3.8,4.5-3.8v2.2c-1.4,0-1.7,0.4-1.7,1.6H97v2h-1.8v8.6H92.5L92.5,27.3z"/>
	<path d="M104.2,27.3c-0.1-0.3-0.1-0.6-0.2-1c-0.6,0.7-1.8,1.2-3.2,1.2c-2.4,0-3.5-1.2-3.5-2.9c0-3,2-3.4,4.8-3.8
		c1.4-0.2,1.8-0.5,1.8-1.2s-0.7-1.1-1.8-1.1c-1.3,0-1.8,0.6-1.9,1.6h-2.6c0-2.2,1.2-3.7,4.6-3.7c3.3,0,4.5,1.5,4.5,4.1v6.7
		L104.2,27.3L104.2,27.3z M104,22.2c-0.3,0.3-0.8,0.4-1.8,0.6c-1.6,0.3-2.1,0.7-2.1,1.6c0,0.8,0.5,1.2,1.4,1.2
		c1.4,0,2.5-1.1,2.5-2.3V22.2z"/>
	<path d="M108.4,27.3V12.9h2.8v14.4H108.4z"/>
</g>
<g>
	<path d="M52.2,38v-0.7c-0.3,0.6-0.9,0.9-1.6,0.9c-1.4,0-2.4-1.1-2.4-3c0-1.7,0.9-2.9,2.3-2.9c0.7,0,1.3,0.3,1.7,0.9v-2.8h1.5v7.7
		L52.2,38L52.2,38z M52.3,35.4c0-1.2-0.4-1.8-1.3-1.8c-0.9,0-1.3,0.6-1.3,1.7c0,1,0.5,1.7,1.3,1.7C51.7,37,52.3,36.3,52.3,35.4z"/>
	<path d="M62.5,35.6c0,0.9,0.5,1.4,1.3,1.4c0.5,0,0.9-0.2,1-0.6h1.5c-0.3,1.2-1.3,1.8-2.4,1.8c-1.9,0-2.8-1-2.8-3.1
		c0-1.7,1-2.9,2.7-2.9c1.7,0,2.7,1.1,2.7,3.3L62.5,35.6L62.5,35.6z M64.8,34.7c0-0.8-0.6-1.2-1.2-1.2c-0.6,0-1.1,0.4-1.2,1.2H64.8z"
		/>
	<path d="M77.1,34.1c-0.1-0.5-0.4-0.7-1.1-0.7c-0.5,0-0.9,0.1-0.9,0.5s0.3,0.5,0.9,0.6c0.6,0.2,1.3,0.3,1.7,0.5
		c0.6,0.2,0.9,0.6,0.9,1.4c0,1.2-0.9,1.9-2.4,1.9c-1.7,0-2.7-0.8-2.7-1.9H75c0,0.5,0.4,0.9,1.2,0.9c0.5,0,1-0.2,1-0.6
		s-0.4-0.5-0.9-0.6c-1-0.2-1.5-0.4-1.9-0.6c-0.5-0.3-0.7-0.7-0.7-1.3c0-1,0.6-1.7,2.3-1.7c1.6,0,2.3,0.6,2.4,1.8L77.1,34.1
		L77.1,34.1z"/>
	<path d="M86,31.7v-1.4h1.5v1.4H86z M86,38v-5.6h1.5V38H86z"/>
	<path d="M98.9,37.3c-0.2,0.5-0.8,0.8-1.5,0.8c-1.8,0-2.5-1.4-2.5-2.9c0-1.7,1.1-2.9,2.4-2.9c0.7,0,1.2,0.3,1.6,0.9v-0.7h1.5v5.7
		c0,1.7-1.2,2.6-2.8,2.6c-1.6,0-2.7-0.9-2.7-2.3h1.4c0,0.7,0.5,1.1,1.2,1.1c0.8,0,1.4-0.5,1.4-1.2V37.3L98.9,37.3z M99,35.4
		c0-1.2-0.4-1.8-1.3-1.8s-1.3,0.5-1.3,1.7c0,1,0.5,1.6,1.3,1.6C98.4,36.9,99,36.3,99,35.4z"/>
	<path d="M111.5,38v-3.4c0-0.9-0.2-1.1-1-1.1s-1.2,0.4-1.2,1.3V38h-1.5v-5.6h1.4v0.8c0.3-0.6,0.9-1,1.8-1c1.1,0,1.9,0.6,1.9,1.9V38
		H111.5L111.5,38z"/>
</g>
</svg>
